<svg xmlns="http://www.w3.org/2000/svg" width="100%" height="auto" overflow="hidden" viewBox="0 0 1200 270" role="img" aria-labelledby="title">
<title id="title">Acrazie / Skills</title><defs>
<linearGradient id="base" x2="1" y2=".5"><stop stop-color="#A8BFFF"/><stop offset="1" stop-color="#C5B9F5"/></linearGradient>
<radialGradient id="blue"><stop stop-color="#7295F5"/><stop offset="1" stop-color="#7295F5" stop-opacity="0"/></radialGradient>
<radialGradient id="iris"><stop stop-color="#626CE8" stop-opacity=".65"/><stop offset="1" stop-color="#626CE8" stop-opacity="0"/></radialGradient>
</defs><rect width="1200" height="270" fill="url(#base)"/>
<ellipse cx="80" cy="270" rx="700" ry="270" fill="url(#blue)"/>
<ellipse cx="1200" cy="0" rx="620" ry="270" fill="url(#iris)"/>
<g fill="none" stroke="#101116" stroke-width="10" stroke-linejoin="miter" stroke-linecap="square"><path transform="translate(52,43)" d="M0 70 0 20 20 0 40 0 60 20 60 70 M0 40H60"/><path transform="translate(140,43)" d="M60 5H20L0 25V50L20 70H60"/><path transform="translate(228,43)" d="M0 70V0H40L60 15V25L40 40H0 M35 40 60 70"/><path transform="translate(316,43)" d="M0 70 0 20 20 0 40 0 60 20 60 70 M0 40H60"/><path transform="translate(404,43)" d="M0 0H60L0 70H60"/><path transform="translate(492,43)" d="M10 0H50 M30 0V70 M10 70H50"/><path transform="translate(580,43)" d="M60 0H0V70H60 M0 35H45"/><path transform="translate(52,145)" d="M60 0H15L0 15V25L15 35H45L60 45V55L45 70H0"/><path transform="translate(140,145)" d="M0 0V70 M60 0 0 40 M25 25 60 70"/><path transform="translate(228,145)" d="M10 0H50 M30 0V70 M10 70H50"/><path transform="translate(316,145)" d="M0 0V70H60"/><path transform="translate(404,145)" d="M0 0V70H60"/><path transform="translate(492,145)" d="M60 0H15L0 15V25L15 35H45L60 45V55L45 70H0"/></g>
<path d="M740 42 686 218" fill="none" stroke="#F8F9FF" stroke-width="12"/>
<g fill="#101116" opacity=".65"><path d="M856 94h220v2H856z M856 116h170v2H856z M856 138h220v2H856z M856 160h120v2H856z"/></g>
</svg>